<?xml version="1.0" encoding="UTF-8" standalone="no"?>
<svg
   xmlns:dc="http://purl.org/dc/elements/1.1/"
   xmlns:cc="http://creativecommons.org/ns#"
   xmlns:rdf="http://www.w3.org/1999/02/22-rdf-syntax-ns#"
   xmlns:svg="http://www.w3.org/2000/svg"
   xmlns="http://www.w3.org/2000/svg"
   viewBox="0 0 502.25333 77.440002"
   height="77.440002"
   width="502.25333"
   xml:space="preserve"
   id="svg2"
   version="1.1"><metadata
     id="metadata8"><rdf:RDF><cc:Work
         rdf:about=""><dc:format>image/svg+xml</dc:format><dc:type
           rdf:resource="http://purl.org/dc/dcmitype/StillImage" /></cc:Work></rdf:RDF></metadata><defs
     id="defs6"><clipPath
       id="clipPath20"
       clipPathUnits="userSpaceOnUse"><path
         id="path18"
         d="M 0,580.801 V 0 h 3766.86 v 580.801 z" /></clipPath></defs><g
     transform="matrix(1.3333333,0,0,-1.3333333,0,77.44)"
     id="g10"><g
       transform="scale(0.1)"
       id="g12"><g
         id="g14"><g
           clip-path="url(#clipPath20)"
           id="g16"><path
             id="path22"
             style="fill:#231f20;fill-opacity:1;fill-rule:evenodd;stroke:none"
             d="M 138.254,314.398 C 98.3828,277.852 88.3672,139.828 135.855,98.3984 164.41,73.4766 215.488,87.5391 246.25,112.793 c 0,71.195 0,142.406 0,213.609 -44.059,8.16 -82.312,11.543 -107.996,-12.004 z m 208.797,266.403 c 5.601,-184 0.801,-378.395 2.402,-566.4065 -23.203,0 -46.402,0 -69.598,0 -10.32,4.8828 -8.078,22.3243 -14.402,31.1914 C 231.062,26.1328 209.531,5.74219 167.051,2.40234 -9.59375,-11.5039 -44.3438,260.504 54.2539,364.801 93.7383,406.566 186.023,432.773 246.25,396 c 0,55.199 0,110.402 0,165.602 31.902,8.101 68.902,11.097 100.801,19.199" /><path
             id="path24"
             style="fill:#231f20;fill-opacity:1;fill-rule:evenodd;stroke:none"
             d="m 1967.05,227.996 c 49.99,55.621 100.98,131.024 148.8,196.805 27.94,-16.055 52.04,-35.957 79.2,-52.797 -36.89,-52.719 -78.47,-100.723 -117.59,-151.203 42.17,-55.426 91.3,-103.883 131.99,-160.801 -26.46,-19.1406 -53.01,-38.2031 -76.8,-60 -55.7,64.2969 -107.3,132.699 -163.2,196.801 -5.6,-56.016 -0.8,-122.4065 -2.4,-182.4065 -34.4,0 -68.79,0 -103.2,0 0,182.4065 0,364.8045 0,547.2075 32.26,7.738 69.11,10.89 100.79,19.199 5.61,-112.805 0.8,-236 2.41,-352.805" /><path
             id="path26"
             style="fill:#231f20;fill-opacity:1;fill-rule:evenodd;stroke:none"
             d="m 2737.45,227.996 c 49.61,55.996 100.8,131.207 148.8,196.805 27.99,-16.008 51.57,-36.434 79.2,-52.797 -37.4,-52.207 -78.52,-100.676 -117.6,-151.203 42.02,-55.582 91.14,-104.059 132,-160.801 -26.94,-18.6523 -52.85,-38.3594 -76.8,-60 -56.79,64.8047 -108.62,134.574 -165.6,199.203 0,-61.601 0,-123.2069 0,-184.8085 -34.4,0 -68.8,0 -103.2,0 0,182.4065 0,364.8045 0,547.2075 32.04,7.96 69.09,10.91 100.8,19.199 5.6,-112.805 0.8,-236 2.4,-352.805" /><path
             id="path28"
             style="fill:#231f20;fill-opacity:1;fill-rule:evenodd;stroke:none"
             d="m 507.852,100.801 c 21.171,-37.1487 103.64,-9.4143 124.8,11.992 0,24.008 0,48.012 0,71.996 -73.117,15.606 -159.59,-22.969 -124.8,-83.988 z m 220.8,-86.4065 c -24,0 -48.004,0 -72.004,0 -3.488,10.0977 -8.136,19.0625 -9.597,31.1914 C 598.57,7.61719 491.926,-22.4805 438.254,35.9961 c -35.852,39.0625 -41.852,129.1839 0,172.7969 43.101,44.937 104.875,40.437 192,40.809 22.976,103.054 -119.531,80.207 -172.805,52.8 -7.836,22.559 -17.387,43.414 -26.398,64.801 39.148,31.289 96.972,52.442 170.398,45.602 171.188,-15.953 119.977,-209.11 127.203,-398.4105" /><path
             id="path30"
             style="fill:#231f20;fill-opacity:1;fill-rule:evenodd;stroke:none"
             d="m 1535.05,364.801 c 41.86,44.254 151.52,70.156 204.01,24 75.57,-66.473 25.84,-245.418 40.79,-374.4065 -35.2,0 -70.4,0 -105.6,0 -5.36,66.1328 7,186.5665 0,256.8045 -1.39,13.977 -6.74,36.086 -14.4,43.199 -21.02,19.504 -73.98,8.493 -103.19,0 0,-100 0,-200.003 0,-300.0035 -35.21,0 -70.41,0 -105.61,0 -6.21,67.8711 8.12,191.0195 0,261.6055 -6.43,55.82 -61.25,55.906 -117.6,38.398 0,-100 0,-200.003 0,-300.0035 -35.19,0 -70.4,0 -105.6,0 0,129.5935 0,259.2035 0,388.8045 24,0 48,0 72,0 5.11,-12.5 11.63,-23.574 14.4,-38.398 40.61,50.742 187.46,74.484 220.8,0" /><path
             id="path32"
             style="fill:#231f20;fill-opacity:1;fill-rule:evenodd;stroke:none"
             d="m 2341.45,100.801 c 21.05,-36.9143 103.99,-9.8049 124.8,11.992 0,24.008 0,48.012 0,71.996 -73.05,15.566 -159.54,-23.066 -124.8,-83.988 z m 220.8,-86.4065 c -23.99,0 -48,0 -72,0 -3.5,10.0977 -8.15,19.0625 -9.6,31.1914 -35.69,-18.5156 -63.06,-40.91793 -110.4,-43.18356 -89.34,-4.3164 -128.69,54.60936 -127.2,124.78866 2.34,109.739 99.87,130.411 223.2,122.411 16.55,107.316 -121.49,77.468 -175.2,52.8 -7.21,24.786 -19.69,44.317 -26.41,69.602 47.61,24.269 92.5,46.996 168.01,40.801 73.18,-6.012 123.1,-52.61 129.6,-127.203 6.63,-76.028 -4.85,-174.489 0,-271.2075" /><path
             id="path34"
             style="fill:#231f20;fill-opacity:1;fill-rule:evenodd;stroke:none"
             d="m 3111.85,100.801 c 21.17,-37.1487 103.64,-9.4143 124.8,11.992 0,24.008 0,48.012 0,71.996 -73.12,15.606 -159.59,-22.969 -124.8,-83.988 z m 220.8,-86.4065 c -23.2,0 -46.4,0 -69.6,0 -8.59,5.8008 -8.66,20.1367 -12,31.1914 -48.48,-37.98824 -155.15,-68.0468 -208.8,-9.5898 -35.78,38.9648 -41.88,129.1449 0,172.7969 43.57,45.418 106.39,40.363 194.4,40.809 15.65,106.375 -121.15,78.058 -175.2,52.8 -7.84,22.559 -17.38,43.414 -26.4,64.801 39.41,31.336 94.71,51.617 168,45.602 173.19,-14.219 122.91,-207.547 129.6,-398.4105" /><path
             id="path36"
             style="fill:#231f20;fill-opacity:1;fill-rule:evenodd;stroke:none"
             d="m 3541.45,95.0586 c 148.12,-63.2031 160.59,265.1914 21.6,242.4144 -84.66,-13.879 -91.4,-212.606 -21.6,-242.4144 z m 4.8,321.6134 c 104.87,12.601 166.34,-37.539 192,-86.402 64.19,-122.278 11.02,-259.6059 -67.2,-300.0161 -85.99,-44.3945 -204.75,-16.4258 -249.6,55.2149 -84.5,134.9612 -9.62,315.0512 124.8,331.2032" /><path
             id="path38"
             style="fill:#231f20;fill-opacity:1;fill-rule:evenodd;stroke:none"
             d="m 906.246,403.199 c 4.305,-38.199 2.402,-91.043 2.402,-144 0,-50.465 -8.457,-108.863 4.805,-139.195 17.695,-40.5118 87.847,-33.1876 122.397,-9.613 1.59,96.82 -3.18,199.996 2.41,292.808 34.39,0 68.79,0 103.19,0 0,-129.601 0,-259.211 0,-388.8045 -23.19,0 -46.4,0 -69.6,0 -11.39,5.4102 -9.16,24.4336 -14.39,35.9961 C 1011.39,0.566406 898.043,-15.8203 843.852,31.1914 768.355,96.6992 817.449,268.438 803.051,396 c -0.203,3.406 -0.395,6.797 2.398,7.199 33.61,0 67.203,0 100.797,0" /></g></g></g></g></svg>